<?xml version="1.0" encoding="UTF-8"?>
<svg id="dustbin" xmlns="http://www.w3.org/2000/svg" xmlns:xlink="http://www.w3.org/1999/xlink" viewBox="0 0 1435.157401 1240.0389994">
  <defs>
    <style>
      .cls-1 {
        fill: url(#radial-gradient-12);
      }

      .cls-1, .cls-2, .cls-3, .cls-4, .cls-5, .cls-6, .cls-7, .cls-8, .cls-9, .cls-10, .cls-11, .cls-12, .cls-13, .cls-14, .cls-15, .cls-16, .cls-17, .cls-18, .cls-19, .cls-20, .cls-21, .cls-22, .cls-23, .cls-24, .cls-25, .cls-26, .cls-27, .cls-28, .cls-29, .cls-30, .cls-31 {
        stroke-miterlimit: 0;
        stroke-width: 0px;
      }

      .cls-1, .cls-4, .cls-19, .cls-25 {
        stroke: #410e41;
      }

      .cls-2 {
        fill: url(#radial-gradient-6);
      }

      .cls-2, .cls-5, .cls-12, .cls-13, .cls-24 {
        stroke: #501930;
      }

      .cls-32, .cls-6, .cls-27, .cls-30 {
        stroke: #694833;
      }

      .cls-32, .cls-33 {
        fill: none;
        stroke-miterlimit: 10;
      }

      .cls-3 {
        fill: #c4c2d5;
      }

      .cls-3, .cls-7, .cls-8, .cls-10, .cls-11, .cls-16, .cls-26, .cls-28, .cls-29, .cls-31 {
        stroke: #002e44;
      }

      .cls-4 {
        fill: url(#radial-gradient-13);
      }

      .cls-5 {
        fill: url(#radial-gradient-4);
      }

      .cls-6 {
        fill: url(#radial-gradient-19);
      }

      .cls-7 {
        fill: #4d5189;
      }

      .cls-8 {
        fill: url(#radial-gradient-17);
      }

      .cls-9 {
        fill: #64231f;
      }

      .cls-9, .cls-21, .cls-23 {
        stroke: #482930;
      }

      .cls-10 {
        fill: url(#radial-gradient-16);
      }

      .cls-11 {
        fill: #283677;
      }

      .cls-12 {
        fill: url(#radial-gradient-3);
      }

      .cls-13 {
        fill: url(#radial-gradient-5);
      }

      .cls-14 {
        fill: url(#radial-gradient-2);
      }

      .cls-14, .cls-15, .cls-20, .cls-33 {
        stroke: #426143;
      }

      .cls-15 {
        fill: url(#radial-gradient);
      }

      .cls-16 {
        fill: url(#radial-gradient-14);
      }

      .cls-17 {
        fill: url(#radial-gradient-10);
      }

      .cls-17, .cls-18, .cls-22 {
        stroke: #847a53;
      }

      .cls-18 {
        fill: url(#radial-gradient-9);
      }

      .cls-19 {
        fill: #8e278e;
      }

      .cls-20 {
        fill: #1f6439;
      }

      .cls-21 {
        fill: url(#radial-gradient-7);
      }

      .cls-22 {
        fill: #bb982f;
      }

      .cls-23 {
        fill: url(#radial-gradient-8);
      }

      .cls-24 {
        fill: #b02024;
      }

      .cls-25 {
        fill: url(#radial-gradient-11);
      }

      .cls-26 {
        fill: url(#radial-gradient-18);
      }

      .cls-27 {
        fill: url(#radial-gradient-20);
      }

      .cls-28 {
        fill: url(#radial-gradient-15);
      }

      .cls-29 {
        fill: #716f9d;
      }

      .cls-30 {
        fill: #913d1f;
      }

      .cls-31 {
        fill: #9794b6;
      }
    </style>
    <radialGradient id="radial-gradient" cx="119.0959286" cy="485.7647433" fx="119.0959286" fy="485.7647433" r="7.4116185" gradientTransform="translate(-25.4676178 245.359304) scale(1.1907328 .494901)" gradientUnits="userSpaceOnUse">
      <stop offset="0" stop-color="#507751"/>
      <stop offset="1" stop-color="#fff"/>
    </radialGradient>
    <radialGradient id="radial-gradient-2" cx="165.2817556" cy="485.8991457" fx="165.2817556" fy="485.8991457" r="7.4116185" gradientTransform="translate(7.6578189 245.4271905) scale(1.0007164 .494901)" gradientUnits="userSpaceOnUse">
      <stop offset="0" stop-color="#507751"/>
      <stop offset="1" stop-color="#fff"/>
    </radialGradient>
    <radialGradient id="radial-gradient-3" cx="360.7383772" cy="506.5900156" fx="360.7383772" fy="506.5900156" r="7.5261877" gradientTransform="translate(-78.7154717 224.490093) scale(1 .5013206)" gradientUnits="userSpaceOnUse">
      <stop offset="0" stop-color="#bc503d"/>
      <stop offset="1" stop-color="#fff"/>
    </radialGradient>
    <radialGradient id="radial-gradient-4" cx="310.8863725" cy="506.5900156" fx="310.8863725" fy="506.5900156" r="7.3823944" gradientTransform="translate(-75.964566 230.2924807) scale(1 .5221044)" gradientUnits="userSpaceOnUse">
      <stop offset="0" stop-color="#bc503d"/>
      <stop offset="1" stop-color="#fff"/>
    </radialGradient>
    <radialGradient id="radial-gradient-5" cx="382.5675923" cy="518.8709265" fx="382.5675923" fy="518.8709265" r="7.4622987" gradientTransform="translate(-174.2539087 135.8448504) scale(1 .5122058)" gradientUnits="userSpaceOnUse">
      <stop offset="0" stop-color="#bc503d"/>
      <stop offset="1" stop-color="#fff"/>
    </radialGradient>
    <radialGradient id="radial-gradient-6" cx="25.7421683" cy="499.4686248" fx="25.7421683" fy="499.4686248" r="7.4116185" gradientTransform="translate(553.3096619 374.9722317) rotate(90) scale(1 .494901)" gradientUnits="userSpaceOnUse">
      <stop offset="0" stop-color="#bc503d"/>
      <stop offset="1" stop-color="#fff"/>
    </radialGradient>
    <radialGradient id="radial-gradient-7" cx="385.4548684" cy="491.52875" fx="385.4548684" fy="491.52875" r="6.8197279" gradientTransform="translate(-9.8387851 264.2978299) scale(1 .4696737)" gradientUnits="userSpaceOnUse">
      <stop offset="0" stop-color="#bc8190"/>
      <stop offset="1" stop-color="#fff"/>
    </radialGradient>
    <radialGradient id="radial-gradient-8" cx="198.0299494" cy="568.8011393" fx="198.0299494" fy="568.8011393" r="6.8197279" gradientTransform="translate(129.2567602 178.8046245) scale(1.0050812 .4696737)" xlink:href="#radial-gradient-7"/>
    <radialGradient id="radial-gradient-9" cx="571.3990557" cy="640.7963765" fx="571.3990557" fy="640.7963765" r="7.463888" gradientTransform="translate(-148.1075432 232.1638464) scale(1 .4214605)" gradientUnits="userSpaceOnUse">
      <stop offset="0" stop-color="#c8bd96"/>
      <stop offset="1" stop-color="#fff"/>
    </radialGradient>
    <radialGradient id="radial-gradient-10" cx="493.9332466" cy="483.229385" fx="493.9332466" fy="483.229385" gradientTransform="translate(-75.959471 239.7474623) scale(1 .4214605)" xlink:href="#radial-gradient-9"/>
    <radialGradient id="radial-gradient-11" cx="483.7264456" cy="485.7875617" fx="483.7264456" fy="485.7875617" r="7.463888" gradientTransform="translate(0 281.0472942) scale(1 .4214605)" gradientUnits="userSpaceOnUse">
      <stop offset="0" stop-color="#9e549f"/>
      <stop offset="1" stop-color="#fff"/>
    </radialGradient>
    <radialGradient id="radial-gradient-12" cx="545.0602048" cy="485.1536318" fx="545.0602048" fy="485.1536318" r="7.463888" gradientTransform="translate(15.5401569 280.6805407) scale(.9629806 .4214605)" gradientUnits="userSpaceOnUse">
      <stop offset="0" stop-color="#9e549f"/>
      <stop offset="1" stop-color="#fff"/>
    </radialGradient>
    <radialGradient id="radial-gradient-13" cx="517.6744023" cy="436.2127114" fx="517.6744023" fy="436.2127114" r="7.463888" gradientTransform="translate(-38.8919524 238.1788524) scale(.9999523 .4214605)" gradientUnits="userSpaceOnUse">
      <stop offset="0" stop-color="#9e549f"/>
      <stop offset="1" stop-color="#fff"/>
    </radialGradient>
    <radialGradient id="radial-gradient-14" cx="542.1412026" cy="454.1426011" fx="542.1412026" fy="454.1426011" r="7.5996572" gradientTransform="translate(780.1089609 -71.1463707) rotate(90) scale(1.0060559 .4233856)" gradientUnits="userSpaceOnUse">
      <stop offset="0" stop-color="#4d5189"/>
      <stop offset="1" stop-color="#fff"/>
    </radialGradient>
    <radialGradient id="radial-gradient-15" cx="667.1460556" cy="500.9827853" fx="667.1460556" fy="500.9827853" r="8.2012593" gradientTransform="translate(-98.7104826 319.771214) scale(1 .1814851)" gradientUnits="userSpaceOnUse">
      <stop offset="0" stop-color="#4d5189"/>
      <stop offset="1" stop-color="#fff"/>
    </radialGradient>
    <radialGradient id="radial-gradient-16" cx="667.1469587" cy="493.3489159" fx="667.1469587" fy="493.3489159" r="9.3245655" gradientTransform="translate(-102.4502571 320.8456263) scale(1 .1686249)" xlink:href="#radial-gradient-15"/>
    <radialGradient id="radial-gradient-17" cx="667.112116" cy="486.3860727" fx="667.112116" fy="486.3860727" r="9.4045183" gradientTransform="translate(-105.8567282 318.6375767) scale(1 .1631335)" xlink:href="#radial-gradient-15"/>
    <radialGradient id="radial-gradient-18" cx="667.1145938" cy="479.4232295" fx="667.1145938" fy="479.4232295" r="8.2093624" gradientTransform="translate(-109.2679842 298.5154434) scale(1 .1948104)" xlink:href="#radial-gradient-15"/>
    <radialGradient id="radial-gradient-19" cx="632.6328829" cy="491.2845163" fx="632.6328829" fy="491.2845163" r="7.5996572" gradientTransform="translate(.5182081 289.1171692) scale(.9999328 .4233856)" gradientUnits="userSpaceOnUse">
      <stop offset="0" stop-color="#a25c3a"/>
      <stop offset="1" stop-color="#fff"/>
    </radialGradient>
    <radialGradient id="radial-gradient-20" cx="682.4969906" cy="491.2031691" fx="682.4969906" fy="491.2031691" r="7.5996572" gradientTransform="translate(.5182081 289.0702633) scale(.9999328 .4233856)" gradientUnits="userSpaceOnUse">
      <stop offset="0" stop-color="#a25c3a"/>
      <stop offset="1" stop-color="#fff"/>
    </radialGradient>
  </defs>
  <g id="d">
    <g>
      <path class="cls-20" d="m193.6233659,504.111784c-2.7492419,1.0390836-4.9486354,1.5586253-6.5981806,1.5586253-1.3443144,0-2.5197776-.4271788-3.5285546-1.2844227-1.0073338-.8543576-1.740465-2.3668014-2.1993935-4.5358884-.3929937-1.8622326-.6172265-6.5630033-.6727886-14.0853549h-15.1349916v13.489325c-5.193253,5.5605402-10.5705104,8.3400887-16.1288859,8.3400887-6.5981806,0-12.5866212-3.2832154-17.9617138-9.8510894-2.6808717-3.2741054-4.6918411-7.2680828-6.0358849-11.9783243h-18.0517317c1.3375495,7.9747859,4.4973737,14.7861049,9.5166344,20.4093329,6.841355,7.6675707,14.8459063,11.5006345,24.010046,11.5006345,4.5207351,0,8.7362393-.9322889,12.6465128-2.7954234,3.9088303-1.8631345,7.9114668-4.9327606,12.005023-9.208878v12.0043014h4.2155043l24.92646-10.3561995-1.0080554-3.2067273Z"/>
      <ellipse class="cls-15" cx="116.3438094" cy="485.7647433" rx="9.0056486" ry="3.8080498"/>
      <ellipse class="cls-14" cx="173.0579902" cy="485.8991457" rx="7.5685332" ry="3.8080498"/>
    </g>
    <path class="cls-20" d="m174.5328992,436.3955112l.0325944-.0031097-6.4416174-71.6926215-4.1073168.3690444-23.9992112,12.4615247,1.4736573,3.0886856c2.5278809-1.2080944,4.5833945-1.8839894,6.1666699-2.0262474,1.4603793-.1312158,2.7126386.1547391,3.7574965.8578,1.0435497.7046275,1.893883,2.1293734,2.5463566,4.279002.6539109,2.1494994,1.4094403,8.0021688,2.2677673,17.5550043l1.3860315,15.4259751c-5.2283485-4.2539225-11.524734-6.0500353-18.8862819-5.3885966-11.8655818,1.0661284-21.125231,6.9130507-27.7754831,17.5390067-6.6515604,10.6275225-9.4384282,21.9351311-8.3614513,33.9214529.2870346,3.1945797.8194001,6.199668,1.5626239,9.0418176l.0267712-.0024054c.188203,2.0946238,4.3566403,3.4318827,9.3103051,2.9867934,4.9537546-.4450973,8.8169543-2.5040027,8.6287513-4.5986265l.0134754-.0012108c-.013356-.0347529-.0234818-.0738713-.0367561-.1087221-.0300013-.1877554-.0911225-.3690922-.1833888-.5432836-1.6369581-4.4556204-2.7379149-9.6020259-3.2665073-15.4850474-1.0935081-12.1703066.8439408-21.667159,5.8128071-28.4934966,3.7667149-5.1838482,8.3270656-8.0177504,13.6820293-8.4988965,2.8596699-.2569428,5.8741168.3459459,9.0413137,1.810297,3.1685052,1.4627846,5.8179474,3.8169657,7.9495056,7.0595394,2.1318165,3.2454485,3.5659891,6.9187249,4.3027759,11.022704l.0776592.8643153.0307079-.0029402c.0004513.0523946-.0216674.1035569-.0169535.1560213.188211,2.0947136,3.715756,3.489557,7.878951,3.1154919s7.3855922-2.3753942,7.1973811-4.4701077c-.0074987-.0834579-.0527754-.1579973-.0706639-.2391633Z"/>
    <ellipse class="cls-33" cx="168.1612314" cy="446.702996" rx="8.8957913" ry="2.9487641" transform="translate(-76.9651582 37.1485802) rotate(-10.272518)"/>
    <ellipse class="cls-33" cx="169.6886618" cy="455.1308957" rx="6.1311402" ry="2.0323415" transform="translate(-78.4436242 37.5560607) rotate(-10.272518)"/>
    <ellipse class="cls-33" cx="170.8927003" cy="461.7744168" rx="3.4250099" ry="1.1353173" transform="translate(-79.6090652 37.8772683) rotate(-10.272518)"/>
  </g>
  <g id="u">
    <g>
      <path class="cls-24" d="m305.900818,485.1716506c-1.9107991,1.7622962-3.7620414,2.9540571-5.550318,3.5741009-1.2701331.4403895-2.5213557.4220943-3.7539314-.0578491-1.2329937-.4767435-2.4211373-1.6655591-3.5639581-3.5650831-.7939861-1.3174615-2.0802975-4.393783-3.8566943-9.2205766-4.7824297,1.6581975-9.5648593,3.3163951-14.347289,4.9745926l1.5114601,4.3592224c-2.8078362,5.8889157-5.5153198,10.1575341-8.1199327,12.8065094-2.6066582,2.6496845-5.1505681,4.4054333-7.6315206,5.2656465-3.6365487,1.2608896-7.1403951,1.1820101-10.5090211-.2359844-2.9892566-1.2577874-5.6585855-4.8781679-8.0122226-10.8361881-4.7762937,1.6560701-9.5525023,3.3121106-14.328796,4.9681806,2.0140052,5.1018337,4.0603249,9.0699717,6.1402674,11.8732201,2.6696005,3.6002384,6.0818016,6.1196968,10.2336125,7.5563571,4.1511291,1.4368967,8.4496245,1.3868861,12.8954314-.1545952,3.9828866-1.3809744,7.4326099-3.643253,10.3516331-6.7907449,2.9186052-3.144292,6.5024591-9.5924913,10.7520346-19.3432343l5.8241093,16.7973915,3.8963021-1.3509532,20.3315209-18.0105333-2.2626879-2.6094789Z"/>
      <ellipse class="cls-12" cx="282.0229055" cy="478.4541244" rx="7.5963076" ry="3.8080498" transform="translate(-141.1763221 118.7908345) rotate(-19.1228128)"/>
      <ellipse class="cls-5" cx="234.9218065" cy="494.7853477" rx="7.5795989" ry="3.8080498" transform="translate(-149.1254415 104.2619723) rotate(-19.1228128)"/>
    </g>
    <g>
      <path class="cls-24" d="m203.9672889,407.8490829c.1042461.0694189.2092915.1399132.3151362.2114829l31.0487954,20.9944854c1.4337248.969452,2.8048141,1.8500581,4.1315351,2.6677808l.007427-.0109838c.0186736.0136066.0292825.0362415.0484855.0492261,1.7422432,1.178065,5.0554576-.6781185,7.4002702-4.1458676,2.3448126-3.4677491,2.8332666-7.2338621,1.0910234-8.4119271-.019203-.0129846-.0441607-.0143991-.0637437-.0266607l.0114689-.0169614c-.6934733-.4272086-1.3995573-.8769902-2.1303176-1.3711136l-33.3761601-22.5681963"/>
      <ellipse class="cls-13" cx="208.3136836" cy="401.6135674" rx="7.6137232" ry="3.8080498" transform="translate(-241.06684 349.2189753) rotate(-55.9343414)"/>
    </g>
    <g>
      <path class="cls-24" d="m301.8372401,394.4839775l-34.5608312,25.451011c-.0073164.0052759-.0171005.005984-.0244361.011386-1.69343,1.2470622-1.0496118,4.9965366,1.4381478,8.3747536,2.4877061,3.3781444,5.8772108,5.1056623,7.5706407,3.8586001.0029778-.0021929.0043815-.005915.0073593-.0081079,1.7967392-1.3760122,3.8852927-2.9409321,6.2737872-4.6998481l28.195989-20.7638648"/>
      <ellipse class="cls-2" cx="306.1221585" cy="400.7144" rx="3.8080498" ry="7.5631146" transform="translate(-177.9873357 259.573322) rotate(-36.3683771)"/>
    </g>
    <path class="cls-24" d="m251.3904841,454.1435309l-23.2869211-17.9742213-2.0722359,2.6847335c3.5191921,2.6397516,5.6918032,4.7979908,6.5186651,6.4771829.8254089,1.6798937,1.1089201,3.3863471.8548929,5.1172557-.2486195,1.6765166-1.512809,4.0139369-3.7930293,7.0116774l.0064262.0049601c-.0240731.0277932-.0605265.0428402-.0830676.0720438-1.2850618,1.6648918.3716415,5.0973591,3.700354,7.666656,3.3287125,2.5692969,7.0688947,3.3024646,8.3539565,1.6375729.0321307-.0416276.0408666-.0966411.0693107-.1404307l.0245462.0188322,9.7071024-12.5762626Z"/>
    <path class="cls-24" d="m259.0420957,454.3248302l23.4568946-16.3487977,1.9392123,2.7823391c-4.4407995,3.2446374-6.8958758,6.0534432-7.3632195,8.4267763-.4677025,2.3753423.6602002,5.5155661,3.3849998,9.4250485l-.0355125.025081c.055694.0614523.1318071.1036156.1795654.1721381,1.2025695,1.7254202-.6005369,5.060307-4.0273279,7.4486843-3.426791,2.3883772-7.179631,2.9258293-8.3822005,1.200409-.0319248-.045805-.0386408-.1043423-.0663567-.1523112l-.0266843.0188181-9.0593708-12.9981855Z"/>
    <polygon class="cls-24" points="301.5803008 403.266386 292.744434 391.267853 307.5534018 389.6150344 322.3623695 387.9622158 316.3892685 401.6135674 310.4161675 415.264919 301.5803008 403.266386"/>
    <polygon class="cls-24" points="212.6838327 404.1274671 205.0369509 416.916624 197.784657 403.8996517 190.5323631 390.8826794 205.4315387 391.1104948 220.3307144 391.3383101 212.6838327 404.1274671"/>
  </g>
  <g id="s">
    <g>
      <path class="cls-9" d="m368.6606676,495.4571059c.3603265,1.3062899.5405355,2.6941129.5405353,4.1635301-.0000005,3.4838163-1.3284404,6.4610791-3.9867629,8.936118-2.6568793,2.4735957-6.0937927,3.7118365-10.3092969,3.7118359-5.9884406-.0000009-11.3952827-2.1690886-16.2205263-6.5072631-4.8266868-4.3367314-8.0961912-10.7819363-9.8056267-19.3370578l-3.0241661-.0000004-.0000043,29.9674584,3.0241661.0000004c.793023-1.5874887,1.8927199-2.382676,3.2990906-2.3826758,1.2829796.0000002,2.9325247.3059528,4.9486353.9164147,6.5981803,1.8328289,12.4632296,2.7492437,17.5951478,2.7492445,7.148029.000001,13.608387-2.3364929,19.3825173-7.0109249,5.0082565-4.0541824,7.8445299-9.2239575,8.5078778-15.5093252"/>
      <ellipse class="cls-21" cx="375.6160833" cy="495.1559357" rx="6.981505" ry="3.3250674"/>
    </g>
    <g>
      <path class="cls-9" d="m321.2880865,446.4120869c.5929026,4.4620487,2.2023558,8.1414247,4.8283594,11.038128,2.9841663,3.3490391,9.0447026,6.914879,18.1825251,10.7003505,9.1363827,3.7855697,15.2813917,7.010051,18.4342088,9.6720533,2.05218,1.7357485,3.4973737,3.7976112,4.334892,6.1860871l.0373801-.0033644c.4380688,1.6673362,3.4764792,2.7945139,7.1078035,2.5467203,3.8468479-.2625005,6.8639738-1.9605662,6.7389563-3.7926514-.0000246-.00036-.0003191-.0007015-.0003437-.0010614l.0148236-.0013732c.0357395-.9641085.0191429-1.9505927-.0497061-2.9595489-.6738011-9.8743082-7.4035552-17.4071501-20.1883459-22.5956951l-13.7916128-5.581284c-5.9829827-2.4081238-10.0038705-4.7968047-12.0628596-7.1689224-.0549387-.0597398-.1092421-.1198538-.1629102-.1803421"/>
      <ellipse class="cls-23" cx="328.2929397" cy="445.955536" rx="7.0169795" ry="3.3250674" transform="translate(-29.5987522 23.3846766) rotate(-3.9036868)"/>
    </g>
    <path class="cls-9" d="m366.1303162,405.8901314c-.6215742,1.5169219-1.1904578,2.5103479-1.706974,2.9759605-.5163006.4684909-1.2630932.7386097-2.236672.8115261-1.0369011.077659-3.1413809-.2249394-6.3169296-.9060865-4.7971937-1.0488518-8.8389837-1.4509339-12.12886-1.2045379-7.493607.5612355-13.4286151,3.334306-17.8029733,8.3176105-4.3750778,4.9833585-6.3040219,10.9181286-5.7884872,17.8015398.0471491.6295342.1126734,1.2447578.1965727,1.8456706l.0072385-.0011753c.0004759.0075622-.0035994.0147417-.0030335.0222972.1371494,1.8312169,3.3812561,3.08114,7.2457994,2.7917041,3.8645432-.2894359,6.8861865-2.0086338,6.749037-3.8398508-.0328474-.4385782-.2532982-.8410358-.608411-1.1997602l.0180479-.0029798c-2.0303206-2.2580014-3.168242-5.0496561-3.417171-8.3733522-.2053301-2.7415635.9171738-5.3379964,3.3683389-7.7879134,2.449726-2.4498092,5.8083674-3.8359709,10.0732617-4.1553912,5.6047345-.4197679,10.3402746.8493362,14.2073398,3.8072586,3.8663456,2.9579763,7.2922661,8.827446,10.2793084,17.6097406l3.0157199-.2258631-2.1354327-28.5122608-3.0157199.2258631Z"/>
  </g>
  <g id="T">
    <g>
      <path class="cls-22" d="m418.5795241,508.1478474l3.1112083,2.4014179c4.7879625,3.6956377,8.7237703,5.9231773,11.8039961,6.6799736,3.0813683.757678,6.0589163.5492103,8.9348486-.6282593,2.8761929-1.1754453,5.171803-2.8764999,6.8891149-5.1014002,2.5382708-3.2885111,3.8058955-7.4037341,3.8005891-12.3474328-.0050458-4.9416744-1.723922-10.0886455-5.1566286-15.4409135l-2.1837859,2.8292506c1.2999526,2.3169022,1.867505,4.6072104,1.7015147,6.8700428-.1657297,2.2648567-.8654561,4.1941113-2.0973353,5.7900988-1.4933339,1.9347207-3.4638109,2.9405602-5.9161811,3.0165867-2.4503459.0757659-5.8283152-1.5470974-10.1330259-4.8697322l-1.4237008-1.098898"/>
      <ellipse class="cls-18" cx="423.2915125" cy="502.2342061" rx="7.5604153" ry="3.3250674" transform="translate(-232.9241942 530.4449962) rotate(-52.3368787)"/>
    </g>
    <g>
      <path class="cls-22" d="m410.8043285,445.8107634l14.1917868,40.9307382.0252845-.0085759c.009989.0384462-.0001093.0811841.0129511.1188518.6016054,1.7350988,4.2874443,2.0326932,8.232493.6648388,3.9451339-1.3678839,6.6555542-3.8832334,6.0539488-5.6183321-.0001182-.0003409-.0004921-.0005931-.0006102-.000934l.0002557-.0000886-14.2446574-41.0832231"/>
      <ellipse class="cls-17" cx="417.9737756" cy="443.4095594" rx="7.5604153" ry="3.3250674" transform="translate(-122.1939282 161.3936622) rotate(-19.1228057)"/>
    </g>
    <path class="cls-22" d="m420.6682258,416.3995584l4.9592415-27.1338628-2.7945905-.5107658c-3.5747224,5.6198752-6.2602944,9.4451779-8.0595555,11.4753893-3.4953056,3.8328184-7.2596589,7.01056-11.2911897,9.5350336-4.0334008,2.5226647-7.8237518,4.1449533-11.3695645,4.8627366l-.5435887,2.9741769,13.0714719,2.3890659-1.6540211,9.0497672.0180281.0032033c-.0064059.0265203-.0274663.0484367-.0323962.0754101-.330175,1.8065108,2.7319826,3.8794706,6.8393989,4.6301808,4.1075051.7507265,7.7048596-.1050779,8.0350346-1.9115886.0077354-.0423235-.009747-.0861384-.0057143-.1287719l.0283206.0050844,1.6457829-9.0046931,19.2916895,3.5259317,1.1533421-6.3103657-19.2916895-3.5259317Z"/>
  </g>
  <g id="b">
    <g>
      <path class="cls-19" d="m526.70659,501.8200274c-4.7971024,6.1103886-9.973759,9.1641397-15.532856,9.1641397-3.4823731,0-6.8882581-.7778695-10.217655-2.3364948-3.3308401-1.5571822-6.5519991-3.8633704-9.6692498-6.9185647v-16.2975566h-15.1201089v21.6127576c5.2531447,3.5444295,10.4009378,6.2013084,15.4419362,7.97208,5.0395553,1.7722147,10.0026224,2.6583221,14.8920878,2.6583221,10.4456761,0,19.9157682-3.9095519,28.4073899-11.7300988,6.1970691-5.6991749,10.4535233-12.5374631,12.7708059-20.5130608h-14.5368872c-1.0415189,6.7428585-3.1683029,12.227542-6.435463,16.3884764Z"/>
      <ellipse class="cls-25" cx="483.7264456" cy="485.7875617" rx="7.5604153" ry="3.3250674"/>
      <ellipse class="cls-1" cx="540.4225866" cy="485.1536318" rx="7.2805336" ry="3.3250674"/>
    </g>
    <g>
      <path class="cls-19" d="m471.2556265,422.9822466l7.8484037,50.4449032.079946-.0124383c-.010567.1215904-.0446753.2438311-.0259277.3643294.282309,1.8145156,3.8558958,2.765156,7.9817153,2.1232459,4.1259086-.641924,7.2416716-2.6333181,6.9593625-4.4478337-.0187476-.1204983-.0883819-.2265984-.1353903-.339231l.080659-.0125492-5.2149586-33.5186735c3.1797543-4.2044744,5.8831267-7.0962987,8.1106558-8.6813988,2.9449615-2.1275784,6.0168295-3.4394759,9.2168084-3.9373404,6.0363238-.9391535,11.86754,1.0746726,17.4950746,6.0412563,5.6263305,4.9682316,9.2667659,12.7648574,10.9196582,23.3886732.5297714,3.4050577.7776435,6.5706308.8154774,9.5572875-.0185263.1472927-.0505067.2949443-.0277795.4410217.0055328.0355613.0310732.0653624.0390599.1002681.0002412.0572884.0036277.1171912.0036629.1743291l.0606057-.0094293c.5723173,1.6355737,3.8346524,2.4872171,7.6018289,1.9011059s6.6165659-2.3886392,6.6649218-4.1207795l.0367199-.005713c.6350942-4.9182076.5253871-10.1304899-.3314407-15.6376728-1.9628374-12.6159595-6.6801547-22.0677865-14.1507477-28.357129-7.4701493-6.2864905-15.4613892-8.7690064-23.9732759-7.4446957-9.2976213,1.4465582-17.0918434,8.3786633-23.382888,20.7948896l-1.7294427-11.1158362"/>
      <ellipse class="cls-4" cx="478.7577457" cy="422.0252788" rx="7.5600545" ry="3.3250674" transform="translate(-59.1883401 78.6183427) rotate(-8.843388)"/>
    </g>
    <path class="cls-19" d="m495.3644272,353.495365l-4.0559539-.7413045-26.6360699,5.5655982.6852723,3.3865611c2.6998072-.4997695,4.890986-.5966283,6.5746966-.2888974,1.4409497.2633616,2.5717837.874957,3.3904412,1.8300084.8181386.9578907,1.2560568,2.5592886,1.3120754,4.8053539.054599,2.2458058-.7741601,8.0565387-2.487697,17.4319392l-2.5714405,14.0693118.0468324.0086512c-.0224331.0670532-.0713847.1256836-.0841798.1956903-.330175,1.8065108,2.7318051,3.8794381,6.839044,4.630116,4.1072389.7506778,7.7045047-.1051427,8.0346797-1.9116535.0118545-.0648605-.0120446-.1317627-.0087814-.1972765l.0433882.00793,8.9176926-48.7920282Z"/>
  </g>
  <g id="i">
    <g>
      <path class="cls-11" d="m580.3687019,472.8056001l-3.8662653,21.1537818c-.9335714,5.1079181-1.9711416,8.4891497-3.1112908,10.1439542-1.1415689,1.6545451-2.4753388,2.7472806-3.9991118,3.2742073-1.5257115.5295065-4.3015081.4256221-8.3276492-.3102336l-.5931474,3.2453309,40.1144768,7.3317013.5931474-3.2453309c-3.9068901-.7140602-6.5189134-1.6257133-7.83723-2.7366386-1.3199957-1.1097651-2.1966432-2.5903596-2.6344609-4.4411424-.4394968-1.8496226-.185591-5.3579462.7591377-10.5269095l3.8628256-21.1349619"/>
      <ellipse class="cls-16" cx="587.831501" cy="474.2779842" rx="3.3250674" ry="7.6058374" transform="translate(15.5950454 967.259646) rotate(-79.6424023)"/>
    </g>
    <path class="cls-11" d="m587.2264747,415.1158892l-3.9609115.7549769-22.9232492,14.8179495,1.8779984,3.0005258c2.2284942-1.3576789,4.1825633-2.1973287,5.8638951-2.5178021,1.559414-.297235,2.8629576-.1563737,3.9046902.4222472,1.044838.5794981,1.9583159,1.7878565,2.7454972,3.6285176,1.0421147,2.538399,2.4167084,8.2778846,4.1209459,17.2189973l2.03074,10.6540757.0242772-.0046274c.004131.0361251-.0110495.0735437-.0042097.1094279.34383,1.8038698,3.9676038,2.6286775,8.0938486,1.8421869,4.1263334-.7865075,7.1926227-2.8864871,6.8487927-4.6903569-.0056238-.0295048-.0288836-.0532607-.0362457-.0822506l.0198471-.003783-8.6059163-45.1500849Z"/>
    <g id="blue">
      <g>
        <path class="cls-11" d="m575.5995339,406.8316727c-.1093857,3.2111843-1.8431489,6.2894053-4.8489454,7.9784231s-6.5366599,1.5690969-9.3363507-.0074182"/>
        <ellipse class="cls-28" cx="568.4355731" cy="410.6921094" rx="8.1687538" ry="1.5746995" transform="translate(-128.310401 331.1178855) rotate(-29.3325121)"/>
      </g>
      <g>
        <ellipse class="cls-3" cx="564.6967016" cy="404.0365251" rx="9.3677555" ry="1.5746995" transform="translate(-125.5293372 328.4329946) rotate(-29.3325121)"/>
        <path class="cls-7" d="m556.551318,408.6588912c.7567873.9203638,1.6645741,1.6705263,2.6658889,2.2343696l.0003352-.0001883c.7218611.5145356,4.07888-.6508622,7.7924092-2.7375692s6.45473-4.3480222,6.3906409-5.2321732l.0019109-.0010738c.0392004-1.1507772-.1302115-2.3186291-.5244513-3.4457411"/>
        <ellipse class="cls-10" cx="564.6967016" cy="404.0365251" rx="9.3677555" ry="1.5746995" transform="translate(-125.5293372 328.4329946) rotate(-29.3325121)"/>
      </g>
      <g>
        <path class="cls-29" d="m553.0586803,402.5653974c.1738541.4739669.387817.9402763.6431053,1.3945904.2798292.4979875.5978205.9610165.9482049,1.3875729.5140423.6903257,4.4687143-.7446288,8.9188383-3.2452434,4.4540388-2.5028144,7.7380478-5.1368205,7.4091001-5.9323459l.0018201-.0010227c-.1820064-.5203476-.411932-1.0320112-.6913701-1.5293027-.2552896-.4543165-.542316-.8795729-.8567415-1.2745527"/>
        <ellipse class="cls-8" cx="561.2553878" cy="397.9834467" rx="9.39041" ry="1.5746995" transform="translate(-123.0052778 325.9711168) rotate(-29.3325121)"/>
      </g>
      <g>
        <path class="cls-31" d="m550.6166963,395.7942223c-.0225567,1.1387528.1593289,2.2919839.5613054,3.4038541.0034141.0120216.007492.0237039.0123808.0349765.0008031.0021977.0015327.0044061.0023381.0066025l.0005889-.0003309c.0029381.0063296.0054342.0128862.008853.0189703.4260379.7581822,4.4366222-.6867476,8.9578882-3.2273383,4.5212683-2.540592,7.8411073-5.2147752,7.4150694-5.9729574-.0034201-.0060864-.0077236-.0116304-.0116033-.017434l.0021622-.001215c-.7475995-.93913-1.6500942-1.707097-2.6491766-2.287547"/>
        <ellipse class="cls-26" cx="557.8466096" cy="391.9120858" rx="8.2455023" ry="1.5746995" transform="translate(-120.468091 323.5228336) rotate(-29.3325121)"/>
      </g>
      <path class="cls-3" d="m563.2029869,384.6176462c-.0270505-.0481395-.0668776-.0883278-.1185286-.1209626l.0014803-.0008318c-2.8169758-1.6366155-6.4018189-1.7824832-9.4475516-.0710245-3.0267334,1.7007826-4.7631303,4.8101687-4.8503631,8.0455029-.0095507.0862571.0024025.1620936.0382472.2258831.4260379.7581822,3.9897464-.435639,7.9597674-2.666474s6.8429864-4.6539109,6.4169485-5.4120931Z"/>
    </g>
  </g>
  <g id="n">
    <g>
      <path class="cls-30" d="m625.5480012,498.7056631c0,6.1089454-.7490061,10.2494048-2.245575,12.4170485-1.4980121,2.1690869-4.3843553,3.2529088-8.6604728,3.2529088h-1.8328279v3.2990903h41.5142745v-3.2990903c-4.5820699,0-7.6213893-.4127471-9.1179582-1.2367981-1.4980121-.8254942-2.674197-2.1229054-3.5285546-3.8951202-.672518-1.3435928-1.008777-4.8577156-1.008777-10.5380391v-1.8413066h-15.1201089v1.8413066Z"/>
      <ellipse class="cls-6" cx="633.1085951" cy="497.119983" rx="7.5595466" ry="3.3250674"/>
    </g>
    <g>
      <path class="cls-30" d="m695.0583616,513.0926409c-1.4980121-.8543576-2.581834-2.0464173-3.2529088-3.5747361-.8572439-1.891998-1.2844227-5.4984838-1.2844227-10.8122417v-1.8413066h-15.1201089v1.8413066c0,4.8259659-.1226696,7.6978774-.3665656,8.6128482-.6119048,2.3235063-1.6957266,4.078403-3.2529088,5.2704627-1.5586253,1.1906166-4.2934355,1.7866464-8.2015442,1.7866464h-1.7419081v3.2990903h41.5128313v-3.2990903c-4.0322215,0-6.7958951-.4271788-8.2924641-1.2829796Z"/>
      <ellipse class="cls-27" cx="682.9693532" cy="497.0386358" rx="7.5595466" ry="3.3250674"/>
    </g>
    <path class="cls-30" d="m691.2311845,487.3649984l.0319844.0028437,3.0102824-33.8576426c.6708652-7.5454432.4988026-13.2040685-.5134406-16.9741829-1.4840296-5.4058118-3.7660632-9.3974881-6.849359-11.9709718-3.0831681-2.5749212-6.9061941-4.063776-11.47026-4.469567-8.8851942-.7899825-18.7508566,4.2818993-29.5985527,15.216955l1.5744691-17.7085758-3.9243779-.3489164-26.1026158,7.9835413,1.0763315,3.4078009c2.45591-.701674,4.533492-.9776952,6.2383683-.8261147,1.5812512.140589,2.8081021.6495549,3.6822458,1.5241505.8727062.8744678,1.4402321,2.427399,1.7025778,4.6587936.2273065,1.9441208.0173283,6.8520437-.6310988,14.7256575l.0404377.0035048c-.0097082.0501188-.0429694.0952457-.0475146.1463668-.1626279,1.8291303,3.0767395,3.6117367,7.2354301,3.9814858,4.1586008.3697411,7.6616525-.8133969,7.8242804-2.6425272.0051523-.0579493-.022211-.1148051-.0237711-.1726267l.0450197.0039122.8314482-9.3515734c7.8835186-7.270729,15.4473175-10.5869558,22.6894479-9.9430581,4.684816.4165269,7.8639571,2.4334751,9.5363692,6.0464043,1.6708468,3.6142388,2.1702459,9.2251778,1.4940128,16.8309961l-2.8804293,32.3971415.0486953.0043295c-.012224.0580449-.0499456.110563-.0552337.1700396-.1626279,1.8291303,3.0767395,3.6117367,7.2353403,3.9814778s7.6616525-.8133969,7.8242804-2.6425272c.0052881-.0594766-.0225763-.1178259-.024368-.1771169Z"/>
    <ellipse class="cls-32" cx="635.4479092" cy="458.7143935" rx="2.9487641" ry="8.8957913" transform="translate(97.8343809 1028.9640181) rotate(-82.5119673)"/>
    <ellipse class="cls-32" cx="634.331698" cy="467.2065434" rx="2.0323415" ry="6.1311402" transform="translate(88.4439037 1035.2427863) rotate(-82.5119673)"/>
    <ellipse class="cls-32" cx="633.4518142" cy="473.9007114" rx="1.1353173" ry="3.4250099" transform="translate(81.0416046 1040.192196) rotate(-82.5119673)"/>
  </g>
</svg>